<?xml version="1.0" encoding="UTF-8" standalone="no"?>
<svg
   xmlns:dc="http://purl.org/dc/elements/1.1/"
   xmlns:cc="http://creativecommons.org/ns#"
   xmlns:rdf="http://www.w3.org/1999/02/22-rdf-syntax-ns#"
   xmlns:svg="http://www.w3.org/2000/svg"
   xmlns="http://www.w3.org/2000/svg"
   xmlns:sodipodi="http://sodipodi.sourceforge.net/DTD/sodipodi-0.dtd"
   xmlns:inkscape="http://www.inkscape.org/namespaces/inkscape"
   viewBox="0 0 24 24"
   version="1.1"
   id="svg933"
   sodipodi:docname="iconCartridgeSlot.svg"
   inkscape:version="0.92.4 (5da689c313, 2019-01-14)">
  <metadata
     id="metadata939">
    <rdf:RDF>
      <cc:Work
         rdf:about="">
        <dc:format>image/svg+xml</dc:format>
        <dc:type
           rdf:resource="http://purl.org/dc/dcmitype/StillImage" />
        <dc:title />
      </cc:Work>
    </rdf:RDF>
  </metadata>
  <defs
     id="defs937" />
  <sodipodi:namedview
     pagecolor="#ffffff"
     bordercolor="#666666"
     borderopacity="1"
     objecttolerance="10"
     gridtolerance="10"
     guidetolerance="10"
     inkscape:pageopacity="0"
     inkscape:pageshadow="2"
     inkscape:window-width="1822"
     inkscape:window-height="1051"
     id="namedview935"
     showgrid="false"
     inkscape:zoom="18.333333"
     inkscape:cx="12"
     inkscape:cy="12"
     inkscape:window-x="2391"
     inkscape:window-y="-9"
     inkscape:window-maximized="1"
     inkscape:current-layer="svg933" />
  <path
     d="M 4 4 C 3.7238149 4 3.4612807 4.0563725 3.2226562 4.15625 C 2.6221188 4.4076082 2.1737863 4.9416337 2.0410156 5.5957031 C 2.0145117 5.7262695 2 5.86125 2 6 L 2 16 C 2 17.1 2.89 18 4 18 L 4 20 L 14 20 L 20 20 L 20 18 C 21.11 18 22 17.1 22 16 L 22 6 C 22 5.86125 21.985742 5.7262695 21.958984 5.5957031 C 21.826214 4.9416337 21.377881 4.4076082 20.777344 4.15625 C 20.658381 4.1060992 20.533519 4.0675127 20.404297 4.0410156 C 20.403673 4.0408889 20.402968 4.0411418 20.402344 4.0410156 C 20.272461 4.0145117 20.1375 4 20 4 L 4 4 z "
     id="path943"
     style="fill:none;stroke:#9d9d9d;stroke-opacity:1;stroke-width:0.75590551;stroke-miterlimit:4;stroke-dasharray:none" />
</svg>
