<?xml version="1.0" encoding="UTF-8" standalone="no"?>
<svg
   xmlns:dc="http://purl.org/dc/elements/1.1/"
   xmlns:cc="http://creativecommons.org/ns#"
   xmlns:rdf="http://www.w3.org/1999/02/22-rdf-syntax-ns#"
   xmlns:svg="http://www.w3.org/2000/svg"
   xmlns="http://www.w3.org/2000/svg"
   xmlns:sodipodi="http://sodipodi.sourceforge.net/DTD/sodipodi-0.dtd"
   xmlns:inkscape="http://www.inkscape.org/namespaces/inkscape"
   version="1.1"
   width="24"
   height="24"
   viewBox="0 0 24 24"
   id="svg827"
   sodipodi:docname="iconHddSlot.svg"
   inkscape:version="0.92.4 (5da689c313, 2019-01-14)">
  <metadata
     id="metadata833">
    <rdf:RDF>
      <cc:Work
         rdf:about="">
        <dc:format>image/svg+xml</dc:format>
        <dc:type
           rdf:resource="http://purl.org/dc/dcmitype/StillImage" />
        <dc:title></dc:title>
      </cc:Work>
    </rdf:RDF>
  </metadata>
  <defs
     id="defs831" />
  <sodipodi:namedview
     pagecolor="#ffffff"
     bordercolor="#666666"
     borderopacity="1"
     objecttolerance="10"
     gridtolerance="10"
     guidetolerance="10"
     inkscape:pageopacity="0"
     inkscape:pageshadow="2"
     inkscape:window-width="1822"
     inkscape:window-height="1051"
     id="namedview829"
     showgrid="false"
     inkscape:zoom="25.927249"
     inkscape:cx="12"
     inkscape:cy="12"
     inkscape:window-x="2391"
     inkscape:window-y="-9"
     inkscape:window-maximized="1"
     inkscape:current-layer="svg827" />
  <path
     style="fill:none;fill-opacity:1;stroke:#afafaf;stroke-opacity:1;stroke-width:0.83149606;stroke-miterlimit:4;stroke-dasharray:none;font-variant-east_asian:normal;opacity:1;vector-effect:none;stroke-linecap:butt;stroke-linejoin:miter;stroke-dashoffset:0"
     d="m 6,2 h 12 a 2,2 0 0 1 2,2 v 16 a 2,2 0 0 1 -2,2 H 6 A 2,2 0 0 1 4,20 V 4 A 2,2 0 0 1 6,2"
     id="path5117" />
  <path
     style="fill:none;fill-opacity:1;stroke:#afafaf;stroke-opacity:1;font-variant-east_asian:normal;opacity:1;vector-effect:none;stroke-width:0.83149606;stroke-linecap:butt;stroke-linejoin:miter;stroke-miterlimit:4;stroke-dasharray:none;stroke-dashoffset:0"
     d="m 12,4 c -3.3137085,0 -6,2.6862915 -6,6 0,3.31 2.69,6 6.1,6 m 3.64,-1.31 C 17.12,13.59 18,11.9 18,10 18,6.6862915 15.313708,4 12,4"
     id="path5115"
     inkscape:connector-curvature="0"
     sodipodi:nodetypes="csccsc" />
  <path
     style="fill:none;fill-opacity:1;stroke:#afafaf;stroke-opacity:1;font-variant-east_asian:normal;opacity:1;vector-effect:none;stroke-width:0.83149606;stroke-linecap:butt;stroke-linejoin:miter;stroke-miterlimit:4;stroke-dasharray:none;stroke-dashoffset:0"
     d="m 12,9 a 1,1 0 0 1 1,1 1,1 0 0 1 -1,1 1,1 0 0 1 -1,-1 1,1 0 0 1 1,-1"
     id="path5113" />
  <path
     style="fill:none;fill-opacity:1;stroke:#afafaf;stroke-opacity:1;font-variant-east_asian:normal;opacity:1;vector-effect:none;stroke-width:0.83149606;stroke-linecap:butt;stroke-linejoin:miter;stroke-miterlimit:4;stroke-dasharray:none;stroke-dashoffset:0"
     d="M 7,18 A 1,1 0 0 0 6,19 1,1 0 0 0 7,20 1,1 0 0 0 8,19 1,1 0 0 0 7,18"
     id="path5111" />
  <path
     style="fill:none;fill-opacity:1;stroke:#afafaf;stroke-opacity:1;font-variant-east_asian:normal;opacity:1;vector-effect:none;stroke-width:0.83149606;stroke-linecap:butt;stroke-linejoin:miter;stroke-miterlimit:4;stroke-dasharray:none;stroke-dashoffset:0"
     d="m 12.09,13.27 2.49,6.31 2.59,-1.5 -4.22,-5.31 z"
     id="path825" />
</svg>
