<?xml version="1.0" encoding="UTF-8" standalone="no"?>
<svg
   xmlns:dc="http://purl.org/dc/elements/1.1/"
   xmlns:cc="http://creativecommons.org/ns#"
   xmlns:rdf="http://www.w3.org/1999/02/22-rdf-syntax-ns#"
   xmlns:svg="http://www.w3.org/2000/svg"
   xmlns="http://www.w3.org/2000/svg"
   xmlns:sodipodi="http://sodipodi.sourceforge.net/DTD/sodipodi-0.dtd"
   xmlns:inkscape="http://www.inkscape.org/namespaces/inkscape"
   viewBox="0 0 24 24"
   version="1.1"
   id="svg817"
   sodipodi:docname="cpu-32-bit.svg"
   inkscape:version="0.92.4 (5da689c313, 2019-01-14)">
  <metadata
     id="metadata823">
    <rdf:RDF>
      <cc:Work
         rdf:about="">
        <dc:format>image/svg+xml</dc:format>
        <dc:type
           rdf:resource="http://purl.org/dc/dcmitype/StillImage" />
      </cc:Work>
    </rdf:RDF>
  </metadata>
  <defs
     id="defs821" />
  <sodipodi:namedview
     pagecolor="#ffffff"
     bordercolor="#666666"
     borderopacity="1"
     objecttolerance="10"
     gridtolerance="10"
     guidetolerance="10"
     inkscape:pageopacity="0"
     inkscape:pageshadow="2"
     inkscape:window-width="1822"
     inkscape:window-height="1051"
     id="namedview819"
     showgrid="false"
     inkscape:object-paths="true"
     inkscape:zoom="25.927249"
     inkscape:cx="12"
     inkscape:cy="12"
     inkscape:window-x="2391"
     inkscape:window-y="-9"
     inkscape:window-maximized="1"
     inkscape:current-layer="svg817"
     inkscape:snap-bbox="true"
     inkscape:bbox-nodes="false"
     inkscape:snap-page="true" />
  <path
     d="m 6.9419417,16 v 1.5 1.75 1.25 1.5 h 1.5 v -2.25 h 2.0000003 c 0.552285,0 1,-0.447715 1,-1 V 17 c 0,-0.552285 -0.447715,-1 -1,-1 H 8.4419417 Z m 5.5000003,0 v 1.5 1.75 1.25 1.5 h 1.5 v -2.25 h 2 c 0.552285,0 1,-0.447715 1,-1 V 17 c 0,-0.552285 -0.447715,-1 -1,-1 h -2 z m 5.496094,0 v 1.5 1.25 0.5 0.5 1.25 c 0,0.552285 0.447715,1 1,1 h 0.5 1.5 0.5 c 0.552285,0 1,-0.447715 1,-1 V 20.5 19.75 19.25 18.75 17.5 16 h -1.5 v 4.5 h -1.5 V 16 Z m -9.4960943,1.5 h 1.5 v 0.75 h -1.5 z m 5.5000003,0 h 1.5 v 0.75 h -1.5 z"
     id="path831"
     inkscape:connector-curvature="0" />
  <path
     d="m 2.4393398,2 c -0.552285,0 -1,0.447715 -1,1 v 0.5 3 0.5 c 0,0.552285 0.447715,1 1,1 h 0.5 1.5 0.5 c 0.552285,0 1,-0.447715 1,-1 V 6.5 5.75 h -1.5 V 6.5 h -1.5 v -3 h 1.5 v 0.75 h 1.5 V 3.5 3 c 0,-0.552285 -0.447715,-1 -1,-1 h -0.5 -1.5 z m 4.5,0 V 3.5 5.25 6.5 8 h 1.5 V 5.75 H 10.43934 c 0.552285,0 1,-0.447715 1,-1 V 3 c 0,-0.552285 -0.447715,-1 -1,-1 H 8.4393398 Z M 12.435434,2 V 3.5 4.75 5.25 5.75 7 c 0,0.552285 0.447715,1 1,1 h 0.5 1.5 0.5 c 0.552285,0 1,-0.447715 1,-1 V 6.5 5.75 5.25 4.75 3.5 2 h -1.5 v 4.5 h -1.5 V 2 Z M 8.4393398,3.5 h 1.5 v 0.75 h -1.5 z"
     id="path873"
     inkscape:connector-curvature="0" />
  <rect
     style="opacity:1;vector-effect:none;fill:#9c9c9c;fill-opacity:1;stroke:none;stroke-width:1;stroke-linecap:butt;stroke-linejoin:miter;stroke-miterlimit:4;stroke-dasharray:none;stroke-dashoffset:0;stroke-opacity:1;paint-order:stroke fill markers"
     id="rect908"
     width="1.000005"
     height="6"
     x="36.668175"
     y="2.2993557" />
  <path
     d="M 22.5 7.9042969 L 1.5 14.423828 L 1.5 16.328125 C 8.4112471 14.230562 14.959114 12.287918 22.5 9.8320312 L 22.5 7.9042969 z "
     id="path1481" />
</svg>
